<?xml version="1.0" encoding="UTF-8" standalone="no"?>
<!-- Created with Inkscape (http://www.inkscape.org/) -->

<svg
   xmlns:dc="http://purl.org/dc/elements/1.1/"
   xmlns:cc="http://creativecommons.org/ns#"
   xmlns:rdf="http://www.w3.org/1999/02/22-rdf-syntax-ns#"
   xmlns:svg="http://www.w3.org/2000/svg"
   xmlns="http://www.w3.org/2000/svg"
   xmlns:sodipodi="http://sodipodi.sourceforge.net/DTD/sodipodi-0.dtd"
   xmlns:inkscape="http://www.inkscape.org/namespaces/inkscape"
   id="svg2"
   version="1.1"
   inkscape:version="0.48.3.1 r9886"
   width="765"
   height="990"
   xml:space="preserve"
   sodipodi:docname="cmp-logo.svg"><metadata
     id="metadata8"><rdf:RDF><cc:Work
         rdf:about=""><dc:format>image/svg+xml</dc:format><dc:type
           rdf:resource="http://purl.org/dc/dcmitype/StillImage" /><dc:title /></cc:Work></rdf:RDF></metadata><defs
     id="defs6"><clipPath
       clipPathUnits="userSpaceOnUse"
       id="clipPath16"><path
         d="M 0,792 612,792 612,0 0,0 0,792 z"
         id="path18" /></clipPath></defs><sodipodi:namedview
     pagecolor="#ffffff"
     bordercolor="#666666"
     borderopacity="1"
     objecttolerance="10"
     gridtolerance="10"
     guidetolerance="10"
     inkscape:pageopacity="0"
     inkscape:pageshadow="2"
     inkscape:window-width="1535"
     inkscape:window-height="876"
     id="namedview4"
     showgrid="false"
     inkscape:zoom="5.3940105"
     inkscape:cx="286.64705"
     inkscape:cy="373.83862"
     inkscape:window-x="65"
     inkscape:window-y="24"
     inkscape:window-maximized="1"
     inkscape:current-layer="g10" /><g
     id="g10"
     inkscape:groupmode="layer"
     inkscape:label="cmp.logo.illustrator"
     transform="matrix(1.25,0,0,-1.25,0,990)"><g
       id="g20"
       transform="matrix(0.26834472,0,0,0.26834472,254.12842,294.53686)"
       inkscape:export-filename="/home/mel/workspace/cml/cmlproject/static/images/icon.png"
       inkscape:export-xdpi="90"
       inkscape:export-ydpi="90"
       style="fill:#f68a17;fill-opacity:1"><path
         d="m 0,0 c 0,-24.288 -19.699,-43.982 -43.982,-43.982 l -135.63,0 c -13.51,0 -43.965,-1.582 -43.965,-1.582 0,0 -0.016,34.793 -0.016,45.564 l 0,135.625 c 0,24.294 19.697,43.983 43.981,43.983 l 135.63,0 C -19.699,179.608 0,159.919 0,135.625 L 0,0 z"
         style="fill:#f68a17;fill-opacity:1;fill-rule:nonzero;stroke:none"
         id="path22"
         inkscape:connector-curvature="0" /></g><g
       id="g24"
       transform="matrix(0.26834472,0,0,0.26834472,239.27643,282.73441)"
       style="fill:#ffffff;fill-opacity:1"
       inkscape:export-filename="/home/mel/workspace/cml/cmlproject/static/images/icon.png"
       inkscape:export-xdpi="90"
       inkscape:export-ydpi="90"><path
         d="m 0,0 -112.904,0 0,65.946 c 0,24.297 22.483,43.992 50.213,43.992 l 12.476,0 C -22.481,109.938 0,90.243 0,65.946 L 0,0 z"
         style="fill:#ffffff;fill-opacity:1;fill-rule:nonzero;stroke:none"
         id="path26"
         inkscape:connector-curvature="0" /></g><g
       id="g28"
       transform="matrix(0.26834472,0,0,0.26834472,233.94074,324.71764)"
       style="fill:#ffffff;fill-opacity:1"
       inkscape:export-filename="/home/mel/workspace/cml/cmlproject/static/images/icon.png"
       inkscape:export-xdpi="90"
       inkscape:export-ydpi="90"><path
         d="m 0,0 c 0,-20.191 -16.374,-36.562 -36.566,-36.562 -20.201,0 -36.568,16.371 -36.568,36.562 0,20.194 16.367,36.566 36.568,36.566 C -16.374,36.566 0,20.194 0,0"
         style="fill:#ffffff;fill-opacity:1;fill-rule:nonzero;stroke:none"
         id="path30"
         inkscape:connector-curvature="0" /></g></g></svg>